# xmcd
# 
# Track frame offsets:
#     150
#     15171
#     34149
#     54004
#     71966
#     86579
#     110289
#     128232
#     142203
#     160548
#     178730
#     199397
#     220541
#     240366
# 
# Disc length: 3280 seconds
# 
# Revision: 2
# Processed by: cddbd v1.5.1PL0 Copyright (c) Steve Scherf et al.
# Submitted via: BonkEnc v1.0beta1
# 
DISCID=b80cce0e
DTITLE=Hank H‰berle Jr. - Irgendwie isch jeder ganz alloi
DYEAR=2002
DGENRE=Country
TTITLE0=Intro: Bruder H‰bi's Klagelied
TTITLE1=Schugget mi net emmer bei meim Bier
TTITLE2=V8-Big-Block
TTITLE3=Die demmschte Baura
TTITLE4=Irgendwie isch jeder ganz alloi
TTITLE5=Rote Rosen, braune Hand
TTITLE6=Der Himmel in deinen rotversoffnen Augen
TTITLE7=Wir brauchen keine Frauen...
TTITLE8=Sonscht ben i gsond
TTITLE9=Bloﬂ d'Oma, die isch krank
TTITLE10=Zwiebelrostbraten mit Brot ond Soﬂ'
TTITLE11=Wer dappt uff meiner Beene rom?
TTITLE12=Jedesmol dr gleiche Scheiﬂ
TTITLE13=Outtro: H‰berle gutta Mann
EXTD=YEAR: 2002 ID3G:   2
EXTT0=
EXTT1=
EXTT2=
EXTT3=
EXTT4=
EXTT5=
EXTT6=
EXTT7=
EXTT8=
EXTT9=
EXTT10=
EXTT11=
EXTT12=
EXTT13=
PLAYORDER=
